<?xml version="1.0" standalone="no"?>
<!DOCTYPE svg PUBLIC "-//W3C//DTD SVG 20010904//EN"
 "http://www.w3.org/TR/2001/REC-SVG-20010904/DTD/svg10.dtd">
<svg version="1.0" xmlns="http://www.w3.org/2000/svg"
 width="500.000000pt" height="500.000000pt" viewBox="0 0 500.000000 500.000000"
 preserveAspectRatio="xMidYMid meet">

<g transform="translate(0.000000,500.000000) scale(0.100000,-0.100000)"
fill="#000000" stroke="none">
<path d="M677 3873 c-4 -3 -7 -73 -7 -154 0 -170 -4 -162 101 -215 38 -19 69
-37 69 -40 0 -3 -18 -37 -39 -77 -142 -260 -207 -632 -171 -977 23 -222 84
-426 176 -597 24 -44 44 -83 44 -86 0 -3 -26 -17 -57 -32 -31 -14 -72 -37 -90
-51 l-33 -25 0 -160 0 -159 1843 2 1842 3 3 153 3 153 -32 29 c-18 16 -45 34
-61 41 -36 15 -35 29 7 100 155 254 233 669 194 1027 -23 215 -99 466 -186
614 -18 31 -33 61 -33 67 0 6 15 18 33 27 76 39 77 41 77 211 l0 153 -1838 0
c-1011 0 -1842 -3 -1845 -7z m2251 -604 c227 -13 499 -54 630 -94 356 -108
561 -338 539 -604 -21 -251 -232 -446 -577 -531 -263 -66 -476 -85 -955 -85
-475 0 -632 13 -945 80 -252 53 -483 210 -567 383 -34 70 -38 86 -41 178 -6
157 25 247 125 354 66 72 146 129 240 171 125 56 170 68 438 115 221 39 755
55 1113 33z"/>
</g>
</svg>
